<?xml version="1.0" standalone="no"?>
<!DOCTYPE svg PUBLIC "-//W3C//DTD SVG 20010904//EN"
 "http://www.w3.org/TR/2001/REC-SVG-20010904/DTD/svg10.dtd">
<svg version="1.0" xmlns="http://www.w3.org/2000/svg"
 width="225.000000pt" height="225.000000pt" viewBox="0 0 225.000000 225.000000"
 preserveAspectRatio="xMidYMid meet">
<metadata>
Created by potrace 1.11, written by Peter Selinger 2001-2013
</metadata>
<g transform="translate(0.000000,225.000000) scale(0.100000,-0.100000)"
fill="#000000" stroke="none">
<path d="M1108 1985 c-3 -3 -25 -8 -49 -11 -24 -4 -52 -11 -62 -16 -10 -5 -31
-10 -48 -10 -16 -1 -29 -5 -29 -10 0 -4 -8 -8 -17 -8 -10 0 -45 -14 -78 -31
-33 -18 -73 -39 -90 -47 -16 -9 -37 -23 -45 -31 -8 -9 -27 -23 -41 -31 -15 -8
-55 -41 -89 -72 -34 -32 -66 -59 -71 -59 -5 -1 -14 -2 -21 -3 -7 0 -23 -17
-36 -36 -12 -19 -42 -56 -65 -83 -52 -59 -66 -85 -67 -120 0 -16 -6 -52 -14
-80 -8 -29 -20 -79 -27 -112 -10 -49 -13 -56 -19 -35 -6 24 -7 24 -13 4 -10
-30 -6 -206 6 -228 5 -10 10 -49 12 -85 3 -70 26 -143 57 -177 16 -18 16 -23
5 -33 -11 -9 -19 0 -41 46 -38 80 -23 18 18 -77 29 -68 61 -121 128 -217 25
-35 38 -41 38 -19 0 8 -3 16 -7 18 -18 8 -82 144 -74 157 7 11 10 9 15 -7 4
-11 20 -35 36 -54 16 -18 30 -37 30 -41 0 -11 71 -99 88 -110 7 -5 20 -16 30
-26 57 -60 288 -199 276 -166 -4 8 -10 15 -15 15 -9 0 -89 46 -151 87 -77 51
-223 208 -249 267 -5 11 -18 35 -28 51 -10 17 -16 34 -14 38 6 10 33 -12 33
-27 0 -18 47 -59 58 -52 5 3 38 -25 73 -62 72 -78 172 -149 234 -167 23 -7 75
-30 116 -51 74 -38 75 -38 214 -41 302 -8 480 53 654 225 109 109 175 223 210
364 42 167 29 350 -35 495 -8 17 -14 34 -14 38 0 4 -25 45 -55 91 -109 163
-274 281 -460 329 -32 8 -67 15 -77 15 -21 0 -36 22 -19 28 23 8 -22 30 -51
25 -15 -2 -37 1 -49 8 -30 16 -7 29 53 29 73 0 64 15 -17 29 -84 15 -154 11
-241 -14 -21 -7 -42 10 -30 22 11 11 177 30 252 28 41 -1 74 1 74 3 0 2 -7 11
-16 20 -12 11 -39 17 -99 19 -45 1 -84 0 -87 -2z m217 -280 c70 -18 195 -74
195 -86 0 -5 7 -9 16 -9 8 0 52 -37 97 -82 137 -138 201 -293 200 -483 -1
-115 -20 -200 -67 -295 -118 -240 -334 -375 -606 -379 -303 -5 -547 172 -657
474 -26 72 -26 316 0 395 41 124 93 209 183 297 95 92 226 159 364 183 63 12
204 4 275 -15z"/>
<path d="M944 1350 c-113 -6 -137 -20 -159 -92 -21 -72 -20 -332 2 -400 24
-74 50 -80 330 -81 309 -1 349 2 386 27 49 34 57 76 54 275 -3 272 -1 270
-314 274 -115 1 -249 0 -299 -3z m215 -198 c36 -20 83 -46 103 -57 21 -11 34
-22 30 -26 -10 -10 -197 -109 -205 -109 -4 0 -7 52 -7 115 0 63 3 115 6 115 4
0 37 -17 73 -38z"/>
<path d="M1363 1933 c9 -2 23 -2 30 0 6 3 -1 5 -18 5 -16 0 -22 -2 -12 -5z"/>
<path d="M1409 1849 c-5 -3 -7 -13 -3 -22 5 -13 9 -14 24 -5 14 9 27 8 59 -7
50 -22 63 -14 28 17 -25 22 -85 32 -108 17z"/>
<path d="M221 839 c0 -13 4 -33 9 -44 7 -14 8 -8 3 20 -7 46 -13 59 -12 24z"/>
</g>
</svg>
